<svg width="1440" height="750" viewBox="0 0 1440 750" fill="none" xmlns="http://www.w3.org/2000/svg">
<g clip-path="url(#clip0_7_2)">
<rect width="1440" height="750" fill="#F7F2EB"/>
<g opacity="0.8" clip-path="url(#clip1_7_2)">
<path opacity="0.25" fill-rule="evenodd" clip-rule="evenodd" d="M165.683 628.889C164.218 616.959 153.343 608.471 141.402 609.937C129.462 611.403 120.973 622.268 122.438 634.199C123.903 646.129 134.767 654.608 146.707 653.142C158.648 651.676 167.148 640.819 165.683 628.889Z" fill="#C8793E"/>
<path opacity="0.6" fill-rule="evenodd" clip-rule="evenodd" d="M89.8062 619.457C89.4552 616.598 86.8586 614.57 84.0001 614.921C81.1415 615.272 79.1029 617.87 79.4539 620.728C79.8049 623.587 82.4126 625.624 85.2712 625.273C88.1297 624.922 90.1571 622.316 89.8062 619.457Z" fill="#C8793E"/>
<path opacity="0.45" fill-rule="evenodd" clip-rule="evenodd" d="M134.706 678.49C134.004 672.773 128.799 668.707 123.072 669.41C117.355 670.112 113.289 675.317 113.991 681.034C114.692 686.741 119.896 690.807 125.613 690.105C131.34 689.402 135.406 684.197 134.706 678.49Z" fill="#C8793E"/>
<path d="M144.842 632.151L197.316 608.979" stroke="#C8793E" stroke-width="1.73913" stroke-linecap="round" stroke-linejoin="round"/>
<path opacity="0.7" d="M122.059 628.229L86.4295 620.577" stroke="#E0B4B7" stroke-width="0.702679" stroke-linecap="round" stroke-linejoin="round" stroke-dasharray="3.51 1.41"/>
<path d="M144.534 632.543L128.795 670.547" stroke="#D9CDBA" stroke-width="0.702679" stroke-linecap="round" stroke-linejoin="round" stroke-dasharray="3.51 1.41"/>
<g clip-path="url(#clip2_7_2)">
<path opacity="0.45" fill-rule="evenodd" clip-rule="evenodd" d="M212.581 608.417C214.55 603.778 212.384 598.415 207.735 596.442C203.096 594.472 197.733 596.639 195.764 601.279C193.794 605.918 195.961 611.281 200.6 613.25C205.249 615.223 210.612 613.057 212.581 608.417Z" fill="#C8793E"/>
<path fill-rule="evenodd" clip-rule="evenodd" d="M200.601 613.248C205.25 615.221 210.613 613.054 212.582 608.415L195.764 601.276C193.795 605.916 195.962 611.279 200.601 613.248Z" fill="#C8793E"/>
</g>
</g>
<g clip-path="url(#clip3_7_2)">
<path opacity="0.25" fill-rule="evenodd" clip-rule="evenodd" d="M236.558 142.103C235.156 126.074 221.028 114.21 205.009 115.611C188.99 117.013 177.137 131.15 178.54 147.179C179.942 163.207 194.07 175.071 210.089 173.67C226.107 172.268 237.96 158.131 236.558 142.103Z" fill="#C8793E" fill-opacity="0.41"/>
<path opacity="0.3" fill-rule="evenodd" clip-rule="evenodd" d="M229.036 142.766C227.997 130.891 217.531 122.1 205.667 123.138C193.802 124.176 185.022 134.651 186.06 146.525C187.098 158.39 197.564 167.181 209.429 166.143C221.294 165.105 230.074 154.63 229.036 142.766Z" fill="#C8793E" fill-opacity="0.41"/>
<path opacity="0.4" fill-rule="evenodd" clip-rule="evenodd" d="M364.314 216.514C351.254 217.656 341.6 229.171 342.743 242.231C343.887 255.302 355.393 264.965 368.453 263.823C381.503 262.681 391.156 251.166 390.012 238.096C388.87 225.036 377.364 215.372 364.314 216.514Z" stroke="#C8793E" stroke-opacity="0.41"/>
<path opacity="0.5" fill-rule="evenodd" clip-rule="evenodd" d="M218.291 143.698C217.772 137.761 212.539 133.37 206.602 133.89C200.674 134.408 196.284 139.641 196.803 145.578C197.323 151.516 202.556 155.916 208.483 155.398C214.421 154.878 218.81 149.636 218.291 143.698Z" fill="#C8793E" fill-opacity="0.41"/>
<path fill-rule="evenodd" clip-rule="evenodd" d="M206.602 133.89C200.674 134.408 196.284 139.641 196.803 145.578C197.323 151.516 202.556 155.916 208.483 155.398L206.602 133.89Z" fill="#C8793E" fill-opacity="0.41"/>
<g opacity="0.45" clip-path="url(#clip4_7_2)">
<path opacity="0.45" fill-rule="evenodd" clip-rule="evenodd" d="M372.824 239.608C372.512 236.042 369.37 233.405 365.814 233.717C362.257 234.028 359.621 237.169 359.933 240.736C360.244 244.292 363.386 246.928 366.942 246.617C370.499 246.306 373.135 243.164 372.824 239.608Z" fill="#E6A1A6"/>
<path fill-rule="evenodd" clip-rule="evenodd" d="M365.814 233.717C362.257 234.028 359.621 237.169 359.933 240.736C360.244 244.292 363.386 246.928 366.942 246.617L365.814 233.717Z" fill="#E6A1A6"/>
</g>
<path fill-rule="evenodd" clip-rule="evenodd" d="M407.255 237.134C407.176 236.238 406.386 235.584 405.5 235.661C404.603 235.74 403.949 236.52 404.027 237.417C404.105 238.303 404.886 238.968 405.782 238.889C406.669 238.812 407.332 238.021 407.255 237.134Z" fill="#C8793E" fill-opacity="0.41"/>
<path opacity="0.35" fill-rule="evenodd" clip-rule="evenodd" d="M371.777 277.073C371.699 276.177 370.909 275.523 370.022 275.601C369.126 275.679 368.471 276.459 368.55 277.356C368.627 278.242 369.408 278.907 370.305 278.828C371.191 278.751 371.855 277.96 371.777 277.073Z" fill="#E0B4B7"/>
<path opacity="0.35" fill-rule="evenodd" clip-rule="evenodd" d="M366.494 204.407C366.39 203.222 365.349 202.339 364.164 202.443C362.978 202.546 362.097 203.597 362.2 204.783C362.304 205.968 363.355 206.85 364.54 206.746C365.726 206.642 366.598 205.592 366.494 204.407Z" fill="#E0B4B7"/>
<path opacity="0.8" d="M207.503 145.479L358.087 235.605" stroke="#C8793E" stroke-opacity="0.41"/>
</g>
<g opacity="0.8" clip-path="url(#clip5_7_2)">
<path fill-rule="evenodd" clip-rule="evenodd" d="M1158.09 104.409C1156.9 98.2931 1151.02 94.282 1144.96 95.4593C1138.9 96.6385 1134.94 102.561 1136.13 108.677C1137.32 114.802 1143.21 118.813 1149.27 117.634C1155.33 116.457 1159.28 110.534 1158.09 104.409Z" stroke="#C8793E" stroke-width="0.941176"/>
<g clip-path="url(#clip6_7_2)">
<path opacity="0.45" fill-rule="evenodd" clip-rule="evenodd" d="M1155.4 104.939C1154.5 100.296 1150.04 97.2615 1145.45 98.1545C1140.85 99.0475 1137.86 103.53 1138.77 108.173C1139.67 112.807 1144.12 115.843 1148.71 114.95C1153.31 114.057 1156.3 109.572 1155.4 104.939Z" fill="#C8793E" fill-opacity="0.41"/>
<path fill-rule="evenodd" clip-rule="evenodd" d="M1155.4 104.94C1154.5 100.297 1150.05 97.2606 1145.45 98.1536L1148.72 114.949C1153.31 114.056 1156.3 109.573 1155.4 104.94Z" fill="#C8793E" fill-opacity="0.41"/>
</g>
<path d="M1136.76 101.235L1104.52 87.0849" stroke="#C8793E" stroke-width="0.941176"/>
<path fill-rule="evenodd" clip-rule="evenodd" d="M1098.63 86.7241C1098.98 88.5106 1100.69 89.6848 1102.46 89.3414C1104.22 88.9979 1105.39 87.2646 1105.04 85.4781C1104.69 83.7013 1102.97 82.529 1101.2 82.8725C1099.43 83.2159 1098.28 84.9473 1098.63 86.7241Z" stroke="#C8793E" stroke-width="0.941176"/>
<path fill-rule="evenodd" clip-rule="evenodd" d="M1115.16 142.477C1114.86 140.946 1113.39 139.947 1111.88 140.241C1110.36 140.537 1109.37 142.012 1109.67 143.544C1109.97 145.075 1111.44 146.083 1112.96 145.787C1114.47 145.493 1115.46 144.008 1115.16 142.477Z" fill="white"/>
<path d="M1139.49 115.457L1114.38 141.215" stroke="#C8793E" stroke-width="0.941176"/>
</g>
<g opacity="0.85" clip-path="url(#clip7_7_2)">
<path fill-rule="evenodd" clip-rule="evenodd" d="M218.53 277.453C227.758 274.807 233.099 265.172 230.453 255.944C227.807 246.716 218.171 241.375 208.943 244.021C199.715 246.667 194.374 256.302 197.02 265.53C199.666 274.759 209.302 280.1 218.53 277.453Z" stroke="#C8793E" stroke-width="0.8"/>
<path d="M209.293 245.322L209.669 245.215L209.562 244.838L209.185 244.946L209.293 245.322ZM198.429 255.848L198.056 255.728L197.936 256.101L198.309 256.221L198.429 255.848ZM209.509 246.075L209.617 246.451L209.993 246.343L209.885 245.967L209.509 246.075ZM199.174 256.088L199.054 256.461L199.426 256.581L199.546 256.208L199.174 256.088ZM218.132 276.163L217.756 276.271L217.864 276.647L218.24 276.539L218.132 276.163ZM229.21 264.894L229.588 264.995L229.689 264.618L229.312 264.516L229.21 264.894ZM217.916 275.411L217.808 275.035L217.432 275.143L217.54 275.519L217.916 275.411ZM228.454 264.691L228.556 264.313L228.178 264.211L228.076 264.589L228.454 264.691ZM209.185 244.946C203.704 246.518 199.679 250.688 198.056 255.728L198.801 255.968C200.347 251.166 204.181 247.195 209.401 245.699L209.185 244.946ZM209.885 245.967L209.669 245.215L208.917 245.43L209.133 246.183L209.885 245.967ZM199.546 256.208C201.016 251.644 204.658 247.873 209.617 246.451L209.401 245.699C204.181 247.195 200.347 251.166 198.801 255.968L199.546 256.208ZM198.309 256.221L199.054 256.461L199.294 255.716L198.549 255.476L198.309 256.221ZM218.24 276.539C223.994 274.89 228.14 270.378 229.588 264.995L228.832 264.792C227.452 269.921 223.503 274.216 218.024 275.787L218.24 276.539ZM217.54 275.519L217.756 276.271L218.508 276.055L218.292 275.303L217.54 275.519ZM228.076 264.589C226.765 269.464 223.013 273.543 217.808 275.035L218.024 275.787C223.503 274.216 227.452 269.921 228.832 264.792L228.076 264.589ZM229.312 264.516L228.556 264.313L228.353 265.068L229.108 265.272L229.312 264.516Z" fill="#DDE4EB"/>
<path fill-rule="evenodd" clip-rule="evenodd" d="M209.665 246.53C211.05 246.133 211.852 244.686 211.455 243.302C211.058 241.918 209.611 241.115 208.227 241.512C206.842 241.909 206.04 243.356 206.437 244.741C206.834 246.125 208.281 246.927 209.665 246.53Z" fill="#F0F2F5" stroke="#C8793E" stroke-width="0.869565"/>
<path fill-rule="evenodd" clip-rule="evenodd" d="M232.966 255.226C232.569 253.842 231.122 253.039 229.738 253.436C228.354 253.833 227.551 255.28 227.948 256.665C228.345 258.049 229.792 258.851 231.177 258.454C232.561 258.057 233.363 256.61 232.966 255.226Z" fill="#C8793E"/>
<path fill-rule="evenodd" clip-rule="evenodd" d="M199.531 264.813C199.134 263.429 197.687 262.627 196.303 263.024C194.918 263.421 194.116 264.868 194.513 266.252C194.91 267.636 196.357 268.438 197.741 268.041C199.126 267.645 199.928 266.197 199.531 264.813Z" fill="white"/>
<path fill-rule="evenodd" clip-rule="evenodd" d="M221.042 276.737C220.645 275.353 219.198 274.551 217.814 274.948C216.43 275.344 215.627 276.792 216.024 278.176C216.421 279.56 217.868 280.362 219.253 279.965C220.637 279.568 221.439 278.121 221.042 276.737Z" fill="#C8793E"/>
</g>
<g opacity="0.33" clip-path="url(#clip8_7_2)">
<g clip-path="url(#clip9_7_2)">
<path opacity="0.45" fill-rule="evenodd" clip-rule="evenodd" d="M1279.02 537.736C1272.59 538.298 1267.85 543.953 1268.41 550.369C1268.97 556.794 1274.62 561.54 1281.05 560.977C1287.47 560.416 1292.21 554.761 1291.65 548.336C1291.09 541.92 1285.43 537.175 1279.02 537.736Z" fill="#C8793E"/>
<path fill-rule="evenodd" clip-rule="evenodd" d="M1291.66 548.335C1291.09 541.919 1285.43 537.175 1279.01 537.736L1281.05 560.978C1287.46 560.416 1292.22 554.76 1291.66 548.335Z" fill="#C8793E"/>
</g>
<path fill-rule="evenodd" clip-rule="evenodd" d="M1337.97 527.493C1341.14 526.934 1343.27 523.898 1342.71 520.727C1342.15 517.556 1339.12 515.441 1335.95 516C1332.77 516.559 1330.66 519.583 1331.22 522.754C1331.78 525.925 1334.8 528.052 1337.97 527.493Z" fill="#C8793E" fill-opacity="0.41"/>
<path d="M1279.74 533.167L1278.77 461.028" stroke="#C8793E" stroke-width="1.16667"/>
<path d="M1146.72 504.349L1265.49 544.649" stroke="#C8793E" stroke-width="1.16667"/>
<path d="M1285.6 564.109L1335.49 668.299L1186.53 609.208L1266.69 557.829" stroke="#C8793E" stroke-opacity="0.41" stroke-width="1.16667"/>
<path opacity="0.6" d="M1297.73 541.097L1330.95 524.582" stroke="#C8793E" stroke-width="1.16667"/>
<path d="M1339.48 515.855L1364.37 464.786" stroke="#C8793E" stroke-width="1.16667"/>
<path d="M1408.63 554.528L1342.64 523.704" stroke="#C8793E" stroke-opacity="0.41" stroke-width="1.16667"/>
<path fill-rule="evenodd" clip-rule="evenodd" d="M1287.67 450.471C1286.83 445.714 1282.29 442.534 1277.53 443.373C1272.78 444.212 1269.6 448.753 1270.44 453.51C1271.27 458.266 1275.81 461.446 1280.57 460.607C1285.33 459.769 1288.51 455.227 1287.67 450.471Z" fill="#C8793E"/>
<path fill-rule="evenodd" clip-rule="evenodd" d="M1422.35 555.852C1421.51 551.095 1416.97 547.915 1412.21 548.754C1407.45 549.593 1404.28 554.134 1405.11 558.891C1405.95 563.647 1410.49 566.827 1415.25 565.988C1420.01 565.15 1423.19 560.608 1422.35 555.852Z" fill="#D3DDE6"/>
<path fill-rule="evenodd" clip-rule="evenodd" d="M1192.49 609.413C1191.99 606.557 1189.26 604.651 1186.41 605.155C1183.55 605.658 1181.65 608.381 1182.15 611.237C1182.65 614.092 1185.38 615.999 1188.23 615.495C1191.09 614.992 1192.99 612.269 1192.49 609.413Z" fill="#C8793E"/>
<path fill-rule="evenodd" clip-rule="evenodd" d="M1138.91 510.464C1143.67 509.625 1146.85 505.084 1146.01 500.327C1145.17 495.571 1140.63 492.391 1135.87 493.23C1131.11 494.069 1127.94 498.61 1128.77 503.366C1129.61 508.123 1134.15 511.303 1138.91 510.464Z" fill="#EDE3D1" fill-opacity="0.6"/>
<path fill-rule="evenodd" clip-rule="evenodd" d="M1374.14 457.136C1373.58 453.965 1370.55 451.85 1367.38 452.409C1364.21 452.968 1362.09 455.991 1362.65 459.162C1363.21 462.334 1366.24 464.461 1369.41 463.901C1372.58 463.342 1374.7 460.307 1374.14 457.136Z" fill="#EDE3D1" fill-opacity="0.6"/>
<path fill-rule="evenodd" clip-rule="evenodd" d="M1341.5 668.434C1341 665.578 1338.28 663.672 1335.42 664.176C1332.56 664.679 1330.66 667.401 1331.16 670.257C1331.67 673.113 1334.39 675.02 1337.24 674.516C1340.1 674.012 1342.01 671.29 1341.5 668.434Z" fill="#C8793E"/>
</g>
</g>
<defs>
<clipPath id="clip0_7_2">
<rect width="1440" height="750" fill="white"/>
</clipPath>
<clipPath id="clip1_7_2">
<rect width="140" height="89" fill="white" transform="translate(77 607.062) rotate(-7)"/>
</clipPath>
<clipPath id="clip2_7_2">
<rect width="19.1304" height="18.3235" fill="white" transform="translate(199.331 592.874) rotate(23)"/>
</clipPath>
<clipPath id="clip3_7_2">
<rect width="220" height="177" fill="white" transform="translate(176 118.149) rotate(-5)"/>
</clipPath>
<clipPath id="clip4_7_2">
<rect width="14" height="14" fill="white" transform="translate(358.763 233.66) rotate(-5)"/>
</clipPath>
<clipPath id="clip5_7_2">
<rect width="55" height="64" fill="white" transform="translate(1098 83.4945) rotate(-11)"/>
</clipPath>
<clipPath id="clip6_7_2">
<rect width="18" height="18" fill="white" transform="translate(1136.37 99.5797) rotate(-11)"/>
</clipPath>
<clipPath id="clip7_7_2">
<rect width="40" height="40" fill="white" transform="translate(189 247.026) rotate(-16)"/>
</clipPath>
<clipPath id="clip8_7_2">
<rect width="280" height="238" fill="white" transform="translate(1123 470.621) rotate(-10)"/>
</clipPath>
<clipPath id="clip9_7_2">
<rect width="24" height="24" fill="white" transform="translate(1269.42 561.995) rotate(-95)"/>
</clipPath>
</defs>
</svg>
